<svg width="24" height="24" viewBox="0 0 24 24" fill="none" xmlns="http://www.w3.org/2000/svg">
<path d="M11.4726 20.3493C16.4302 20.3493 20.4492 16.3527 20.4492 11.4227C20.4492 6.49267 16.4302 2.49609 11.4726 2.49609C6.51503 2.49609 2.49609 6.49267 2.49609 11.4227C2.49609 16.3527 6.51503 20.3493 11.4726 20.3493Z" stroke="#CC4900" stroke-width="1.2672" stroke-linecap="round" stroke-linejoin="round"/>
<path d="M3.18848 14.8585H5.60524C6.2462 14.8585 6.86091 14.6053 7.31414 14.1546C7.76737 13.7039 8.022 13.0926 8.022 12.4552V10.3952C8.022 9.7578 8.27662 9.1465 8.72985 8.6958C9.18308 8.24509 9.79779 7.99188 10.4388 7.99188C11.0797 7.99188 11.6944 7.73868 12.1477 7.28797C12.6009 6.83726 12.8555 6.22597 12.8555 5.58857V2.59473" stroke="#CC4900" stroke-width="1.2672" stroke-linecap="round" stroke-linejoin="round"/>
<path d="M20.4461 11.2827C19.7547 10.9259 18.9879 10.7377 18.2089 10.7334H15.2673C14.6264 10.7334 14.0117 10.9866 13.5584 11.4373C13.1052 11.888 12.8506 12.4993 12.8506 13.1367C12.8506 13.7741 13.1052 14.3854 13.5584 14.8361C14.0117 15.2868 14.6264 15.54 15.2673 15.54C15.7252 15.54 16.1643 15.7209 16.488 16.0428C16.8117 16.3648 16.9936 16.8014 16.9936 17.2567V18.4515" stroke="#CC4900" stroke-width="1.2672" stroke-linecap="round" stroke-linejoin="round"/>
<path d="M10.9144 19.7887C11.0658 19.449 11.0892 19.0374 10.9141 18.6727C10.7389 18.3081 10.5452 17.787 10.1461 17.611C9.74691 17.435 9.30393 17.4011 8.91458 17.5169C8.52523 17.6326 8.2214 17.8885 8.06994 18.2282C7.96175 18.4708 7.74473 18.6535 7.46662 18.7362C7.18852 18.8189 6.8721 18.7947 6.58699 18.669L5.83877 18.339" stroke="#CC4900" stroke-width="1.2672" stroke-linecap="round" stroke-linejoin="round"/>
</svg>

